# xmcd CD database file
#
# Track frame offsets:
#	150
#	19212
#	38577
#
# Disc length: 767 seconds
#
# Revision: 0
# Processed by: cddbd v1.5PL3 Copyright (c) Steve Scherf et al.
# Submitted via: CDex 1.51
#
DISCID=1902fd03
DTITLE=Dear - After The Rain
DYEAR=1997
DGENRE=JPop
TTITLE0=After The Rain
TTITLE1=HERMIT DANCE
TTITLE2=After The Rain -instrumental
EXTD=YEAR: 1997
EXTT0=
EXTT1=
EXTT2=
PLAYORDER=
